# Blender v2.78 (sub 0) OBJ File: 'Arvore 3.blend'
# www.blender.org
mtllib Arvore 3.mtl
o Cylinder.006_Cylinder.009
v 4.906600 0.497291 0.672285
v 4.906600 1.977190 0.672285
v 4.768784 0.497291 0.962751
v 4.768784 1.977190 0.962751
v 4.465942 0.497291 1.070692
v 4.465942 1.977190 1.070692
v 4.175476 0.497291 0.932876
v 4.175476 1.977190 0.932876
v 4.067535 0.497291 0.630035
v 4.067535 1.977190 0.630035
v 4.205351 0.497291 0.339568
v 4.205351 1.977190 0.339568
v 4.508193 0.497291 0.231628
v 4.508193 1.977190 0.231628
v 4.798659 0.497291 0.369443
v 4.798659 1.977190 0.369443
v 4.831892 1.169326 0.668523
v 4.718617 1.169326 0.907265
v 4.469704 1.169326 0.995984
v 4.230962 1.169326 0.882710
v 4.142243 1.169326 0.633797
v 4.255517 1.169326 0.395054
v 4.504431 1.169326 0.306335
v 4.743173 1.169326 0.419610
v 5.637566 1.823758 0.683252
v 4.546988 6.909688 0.628338
v 5.260055 1.823758 1.478911
v 4.527730 6.909688 0.668926
v 4.430499 1.823758 1.774587
v 4.485413 6.909688 0.684009
v 3.634840 1.823758 1.397076
v 4.444825 6.909688 0.664751
v 3.339164 1.823758 0.567519
v 4.429742 6.909688 0.622434
v 3.716676 1.823758 -0.228140
v 4.449000 6.909688 0.581846
v 4.546232 1.823758 -0.523815
v 4.491317 6.909688 0.566763
v 5.341891 1.823758 -0.146304
v 4.531905 6.909688 0.586020
v 5.472036 2.671412 0.674917
v 5.306506 3.519068 0.666582
v 5.140975 4.366723 0.658247
v 4.975445 5.214377 0.649912
v 4.809915 6.062033 0.641577
v 4.704286 6.062033 0.864205
v 4.815440 5.214377 0.987146
v 4.926594 4.366723 1.110087
v 5.037747 3.519068 1.233029
v 5.148901 2.671412 1.355970
v 4.472174 6.062033 0.946936
v 4.463839 5.214377 1.112466
v 4.455504 4.366723 1.277996
v 4.447169 3.519068 1.443526
v 4.438834 2.671412 1.609056
v 4.249546 6.062033 0.841307
v 4.126605 5.214377 0.952461
v 4.003664 4.366723 1.063614
v 3.880722 3.519068 1.174768
v 3.757781 2.671412 1.285922
v 4.166815 6.062033 0.609195
v 4.001285 5.214377 0.600859
v 3.835755 4.366723 0.592524
v 3.670225 3.519068 0.584189
v 3.504694 2.671412 0.575854
v 4.272444 6.062033 0.386567
v 4.161290 5.214377 0.263625
v 4.050137 4.366723 0.140684
v 3.938983 3.519068 0.017743
v 3.827829 2.671412 -0.105199
v 4.504557 6.062033 0.303836
v 4.512891 5.214377 0.138306
v 4.521226 4.366723 -0.027224
v 4.529562 3.519068 -0.192755
v 4.537897 2.671412 -0.358285
v 4.727184 6.062033 0.409465
v 4.850125 5.214377 0.298311
v 4.973067 4.366723 0.187157
v 5.096008 3.519068 0.076003
v 5.218949 2.671412 -0.035150
v 4.993428 5.779114 0.650818
v 4.807234 5.899539 0.978070
v 4.462934 5.779114 1.130449
v 4.135681 5.899539 0.944255
v 3.983302 5.779114 0.599954
v 4.169496 5.899539 0.272701
v 4.513797 5.779114 0.120323
v 4.841050 5.899539 0.306517
v 5.201049 4.931459 0.661272
v 4.938315 5.051885 1.123051
v 4.452479 4.931459 1.338070
v 3.990700 5.051885 1.075335
v 3.775681 4.931459 0.589499
v 4.038416 5.051885 0.127720
v 4.524251 4.931459 -0.087298
v 4.986031 5.051885 0.175436
v 5.458803 4.083804 0.674251
v 5.101046 4.204229 1.303040
v 4.439500 4.083804 1.595824
v 3.810711 4.204229 1.238067
v 3.517927 4.083804 0.576521
v 3.875684 4.204229 -0.052269
v 4.537230 4.083804 -0.345052
v 5.166019 4.204229 0.012705
v 5.666903 3.236149 0.684730
v 5.232430 3.356575 1.448356
v 4.429021 3.236149 1.803924
v 3.665395 3.356575 1.369450
v 3.309827 3.236149 0.566042
v 3.744301 3.356575 -0.197585
v 4.547709 3.236149 -0.553153
v 5.311336 3.356575 -0.118679
v 5.879243 2.388494 0.695422
v 5.366489 2.508920 1.596632
v 4.418329 2.388494 2.016264
v 3.517118 2.508920 1.503510
v 3.097487 2.388494 0.555350
v 3.610241 2.508920 -0.345861
v 4.558401 2.388494 -0.765492
v 5.459612 2.508920 -0.252738
v 5.540236 1.661265 1.788804
v 4.404472 1.540839 2.291464
v 3.324947 1.661265 1.677256
v 2.822287 1.540839 0.541492
v 3.436495 1.661265 -0.538033
v 4.572258 1.540839 -1.040692
v 5.651783 1.661265 -0.426485
v 6.154443 1.540839 0.709279
vn 0.8621 0.3492 0.3672
vn 0.2787 0.3492 0.8946
vn -0.3672 0.3492 0.8621
vn -0.8946 0.3492 0.2787
vn -0.8621 0.3492 -0.3672
vn -0.2787 0.3492 -0.8946
vn 0.0000 1.0000 0.0000
vn 0.3672 0.3492 -0.8621
vn 0.8946 0.3492 -0.2787
vn 0.0000 -1.0000 0.0000
vn 0.8226 0.4795 -0.3055
vn 0.8521 0.4170 -0.3163
vn 0.8640 0.3903 -0.3180
vn 0.8750 0.3654 -0.3176
vn 0.8969 0.3044 -0.3209
vn 0.3866 0.4795 -0.7878
vn 0.4003 0.4170 -0.8160
vn 0.4032 0.3903 -0.8277
vn 0.4039 0.3654 -0.8386
vn 0.4094 0.3044 -0.8601
vn -0.3055 0.4795 -0.8226
vn -0.3163 0.4170 -0.8521
vn -0.3180 0.3903 -0.8640
vn -0.3176 0.3654 -0.8750
vn -0.3209 0.3044 -0.8969
vn -0.7878 0.4795 -0.3866
vn -0.8160 0.4170 -0.4003
vn -0.8277 0.3903 -0.4032
vn -0.8386 0.3654 -0.4039
vn -0.8601 0.3044 -0.4094
vn -0.8226 0.4795 0.3055
vn -0.8521 0.4170 0.3163
vn -0.8640 0.3903 0.3180
vn -0.8750 0.3654 0.3176
vn -0.8969 0.3044 0.3209
vn -0.3866 0.4795 0.7878
vn -0.4003 0.4170 0.8160
vn -0.4032 0.3903 0.8277
vn -0.4039 0.3654 0.8386
vn -0.4094 0.3044 0.8601
vn 0.3055 0.4795 0.8226
vn 0.3163 0.4170 0.8521
vn 0.3180 0.3903 0.8640
vn 0.3176 0.3654 0.8750
vn 0.3209 0.3044 0.8969
vn 0.7878 0.4795 0.3866
vn 0.8160 0.4170 0.4003
vn 0.8277 0.3903 0.4032
vn 0.8386 0.3654 0.4039
vn 0.8601 0.3044 0.4094
vn -0.7938 -0.5729 0.2041
vn -0.2828 -0.5729 0.7693
vn 0.2041 -0.5729 0.7938
vn 0.7693 -0.5729 0.2828
vn 0.7938 -0.5729 -0.2041
vn 0.2828 -0.5729 -0.7693
vn -0.2041 -0.5729 -0.7938
vn -0.7693 -0.5729 -0.2828
vn -0.7098 -0.6472 -0.2780
vn -0.2053 -0.6472 -0.7341
vn 0.2780 -0.6472 -0.7098
vn 0.7341 -0.6472 -0.2053
vn 0.7098 -0.6472 0.2780
vn 0.2053 -0.6472 0.7341
vn -0.2780 -0.6472 0.7098
vn -0.7341 -0.6472 0.2053
vn -0.5972 -0.7682 -0.2306
vn -0.1694 -0.7682 -0.6174
vn 0.2306 -0.7682 -0.5972
vn 0.6174 -0.7682 -0.1694
vn 0.5972 -0.7682 0.2306
vn 0.1694 -0.7682 0.6174
vn -0.2306 -0.7682 0.5972
vn -0.6174 -0.7682 0.1694
vn -0.5528 -0.8039 -0.2195
vn -0.1628 -0.8039 -0.5720
vn 0.2195 -0.8039 -0.5528
vn 0.5720 -0.8039 -0.1628
vn 0.5528 -0.8039 0.2195
vn 0.1628 -0.8039 0.5720
vn -0.2195 -0.8039 0.5528
vn -0.5720 -0.8039 0.1628
vn -0.5096 -0.8355 -0.2056
vn -0.1534 -0.8355 -0.5277
vn 0.2056 -0.8355 -0.5096
vn 0.5277 -0.8355 -0.1534
vn 0.5096 -0.8355 0.2056
vn 0.1534 -0.8355 0.5277
vn -0.2056 -0.8355 0.5096
vn -0.5277 -0.8355 0.1534
vn -0.4259 -0.8890 -0.1682
vn -0.1245 -0.8890 -0.4407
vn 0.1682 -0.8890 -0.4259
vn 0.4407 -0.8890 -0.1245
vn 0.4259 -0.8890 0.1682
vn 0.1245 -0.8890 0.4407
vn -0.1682 -0.8890 0.4259
vn -0.4407 -0.8890 0.1245
vn 0.9002 -0.0852 0.4271
vn 0.3345 -0.0852 0.9385
vn -0.4271 -0.0852 0.9002
vn -0.9385 -0.0852 0.3345
vn -0.9002 -0.0852 -0.4271
vn -0.3345 -0.0852 -0.9385
vn 0.4271 -0.0852 -0.9002
vn 0.9385 -0.0852 -0.3345
vn 0.9370 0.1023 -0.3340
vn 0.4264 0.1023 -0.8987
vn -0.3340 0.1023 -0.9370
vn -0.8987 0.1023 -0.4264
vn -0.9370 0.1023 0.3340
vn -0.4264 0.1023 0.8987
vn 0.3340 0.1023 0.9370
vn 0.8987 0.1023 0.4264
usemtl Material.001
s off
f 81//1 26//1 28//1 82//1
f 82//2 28//2 30//2 83//2
f 83//3 30//3 32//3 84//3
f 84//4 32//4 34//4 85//4
f 85//5 34//5 36//5 86//5
f 86//6 36//6 38//6 87//6
f 28//7 26//7 40//7 38//7 36//7 34//7 32//7 30//7
f 87//8 38//8 40//8 88//8
f 88//9 40//9 26//9 81//9
f 25//10 27//10 29//10 31//10 33//10 35//10 37//10 39//10
f 127//11 80//11 41//11 128//11
f 120//12 79//12 42//12 113//12
f 112//13 78//13 43//13 105//13
f 104//14 77//14 44//14 97//14
f 96//15 76//15 45//15 89//15
f 126//16 75//16 80//16 127//16
f 119//17 74//17 79//17 120//17
f 111//18 73//18 78//18 112//18
f 103//19 72//19 77//19 104//19
f 95//20 71//20 76//20 96//20
f 125//21 70//21 75//21 126//21
f 118//22 69//22 74//22 119//22
f 110//23 68//23 73//23 111//23
f 102//24 67//24 72//24 103//24
f 94//25 66//25 71//25 95//25
f 124//26 65//26 70//26 125//26
f 117//27 64//27 69//27 118//27
f 109//28 63//28 68//28 110//28
f 101//29 62//29 67//29 102//29
f 93//30 61//30 66//30 94//30
f 123//31 60//31 65//31 124//31
f 116//32 59//32 64//32 117//32
f 108//33 58//33 63//33 109//33
f 100//34 57//34 62//34 101//34
f 92//35 56//35 61//35 93//35
f 122//36 55//36 60//36 123//36
f 115//37 54//37 59//37 116//37
f 107//38 53//38 58//38 108//38
f 99//39 52//39 57//39 100//39
f 91//40 51//40 56//40 92//40
f 121//41 50//41 55//41 122//41
f 114//42 49//42 54//42 115//42
f 106//43 48//43 53//43 107//43
f 98//44 47//44 52//44 99//44
f 90//45 46//45 51//45 91//45
f 128//46 41//46 50//46 121//46
f 113//47 42//47 49//47 114//47
f 105//48 43//48 48//48 106//48
f 97//49 44//49 47//49 98//49
f 89//50 45//50 46//50 90//50
f 76//51 88//51 81//51 45//51
f 71//52 87//52 88//52 76//52
f 66//53 86//53 87//53 71//53
f 61//54 85//54 86//54 66//54
f 56//55 84//55 85//55 61//55
f 51//56 83//56 84//56 56//56
f 46//57 82//57 83//57 51//57
f 45//58 81//58 82//58 46//58
f 44//59 89//59 90//59 47//59
f 47//60 90//60 91//60 52//60
f 52//61 91//61 92//61 57//61
f 57//62 92//62 93//62 62//62
f 62//63 93//63 94//63 67//63
f 67//64 94//64 95//64 72//64
f 72//65 95//65 96//65 77//65
f 77//66 96//66 89//66 44//66
f 43//67 97//67 98//67 48//67
f 48//68 98//68 99//68 53//68
f 53//69 99//69 100//69 58//69
f 58//70 100//70 101//70 63//70
f 63//71 101//71 102//71 68//71
f 68//72 102//72 103//72 73//72
f 73//73 103//73 104//73 78//73
f 78//74 104//74 97//74 43//74
f 42//75 105//75 106//75 49//75
f 49//76 106//76 107//76 54//76
f 54//77 107//77 108//77 59//77
f 59//78 108//78 109//78 64//78
f 64//79 109//79 110//79 69//79
f 69//80 110//80 111//80 74//80
f 74//81 111//81 112//81 79//81
f 79//82 112//82 105//82 42//82
f 41//83 113//83 114//83 50//83
f 50//84 114//84 115//84 55//84
f 55//85 115//85 116//85 60//85
f 60//86 116//86 117//86 65//86
f 65//87 117//87 118//87 70//87
f 70//88 118//88 119//88 75//88
f 75//89 119//89 120//89 80//89
f 80//90 120//90 113//90 41//90
f 25//91 128//91 121//91 27//91
f 27//92 121//92 122//92 29//92
f 29//93 122//93 123//93 31//93
f 31//94 123//94 124//94 33//94
f 33//95 124//95 125//95 35//95
f 35//96 125//96 126//96 37//96
f 37//97 126//97 127//97 39//97
f 39//98 127//98 128//98 25//98
usemtl Material.002
f 17//99 2//99 4//99 18//99
f 18//100 4//100 6//100 19//100
f 19//101 6//101 8//101 20//101
f 20//102 8//102 10//102 21//102
f 21//103 10//103 12//103 22//103
f 22//104 12//104 14//104 23//104
f 4//7 2//7 16//7 14//7 12//7 10//7 8//7 6//7
f 23//105 14//105 16//105 24//105
f 24//106 16//106 2//106 17//106
f 1//10 3//10 5//10 7//10 9//10 11//10 13//10 15//10
f 15//107 24//107 17//107 1//107
f 13//108 23//108 24//108 15//108
f 11//109 22//109 23//109 13//109
f 9//110 21//110 22//110 11//110
f 7//111 20//111 21//111 9//111
f 5//112 19//112 20//112 7//112
f 3//113 18//113 19//113 5//113
f 1//114 17//114 18//114 3//114
